<svg width="170" height="170" viewBox="0 0 170 170" fill="none" xmlns="http://www.w3.org/2000/svg">
<rect width="170" height="170" rx="16" fill="#73B6AD"/>
<path d="M134.074 49.9016C134.053 49.7144 134.022 49.5169 134.022 49.3089C134.022 49.1113 134.032 48.9138 134.074 48.7162V35.7289C125 34.8659 115.648 35.8641 107.476 38.9732C99.8421 41.8846 93.2548 46.6574 88.9771 53.5098V127.493C95.637 123.032 102.442 119.361 109.433 116.866C117.398 114.017 125.591 112.665 134.074 113.341V49.9016ZM81.1365 126.723V53.385C77.0246 46.1063 70.3751 41.2399 62.8763 38.3493C54.3728 35.0842 44.8128 34.346 36.4854 35.5314L36.04 113.569C45.1236 113.237 54.0206 114.401 62.3791 117.146C69.039 119.32 75.3467 122.512 81.1365 126.723Z" fill="white"/>
<path d="M28.2202 117.406L28.5827 53.2602H21.3635V134.886C31.2756 132.317 41.2188 130.685 51.2449 130.612C60.4941 130.56 69.7433 131.849 79.0133 135C73.2545 130.321 66.8329 126.869 59.9762 124.633C51.3484 121.805 42.0163 120.869 32.446 121.69C30.2813 121.867 28.3963 120.255 28.2098 118.093C28.1891 117.853 28.1891 117.625 28.2202 117.406ZM92.7784 134.397C101.448 131.662 110.096 130.539 118.755 130.591C128.771 130.643 138.724 132.296 148.636 134.865V53.2602H141.925V117.76C141.925 119.933 140.164 121.701 137.999 121.701C137.688 121.701 137.388 121.67 137.098 121.597C128.512 120.245 120.195 121.368 112.074 124.269C105.528 126.609 99.1068 130.113 92.7784 134.397Z" fill="#FFE601"/>
</svg>
